<?xml version="1.0" encoding="UTF-8"?>
<svg width="16px" height="16px" viewBox="0 0 16 16" version="1.1" xmlns="http://www.w3.org/2000/svg" xmlns:xlink="http://www.w3.org/1999/xlink">
    <!-- Generator: Sketch 49.1 (51147) - http://www.bohemiancoding.com/sketch -->
    <title>Instagram</title>
    <desc>Created with Sketch.</desc>
    <defs></defs>
    <g id="Page-1" stroke="none" stroke-width="1" fill="none" fill-rule="evenodd">
        <g id="Index" transform="translate(-481.000000, -3637.000000)" fill="#FFFFFF">
            <g id="Footer" transform="translate(0.000000, 3580.000000)">
                <g id="Group-Copy-7" transform="translate(388.000000, 56.000000)">
                    <path d="M107.592,1 L94.408,1 C93.64,1 93,1.64 93,2.408 L93,6.328 L98.328,6.328 C99.128,5.752 99.976,5.256 101,5.256 C101.992,5.256 102.888,5.752 103.672,6.328 L109,6.328 L109,2.408 C109,1.64 108.36,1 107.592,1 L107.592,1 Z M107.928,4.712 C107.928,5.016 107.688,5.272 107.384,5.272 L105.288,5.272 C104.984,5.272 104.728,5.016 104.728,4.712 L104.728,2.616 C104.728,2.312 104.984,2.072 105.288,2.072 L107.384,2.072 C107.688,2.072 107.928,2.312 107.928,2.616 L107.928,4.712 Z M103.672,9.528 C103.672,8.056 102.472,6.872 101,6.872 C99.528,6.872 98.328,8.056 98.328,9.528 C98.328,11 99.528,12.2 101,12.2 C102.472,12.2 103.672,11 103.672,9.528 L103.672,9.528 Z M105.08,8.472 C105.176,8.792 105.208,9.128 105.208,9.464 C105.208,11.8 103.32,13.688 101,13.688 C98.68,13.688 96.792,11.8 96.792,9.464 C96.792,9.128 96.824,8.792 96.92,8.472 L93,8.472 L93,15.592 C93,16.36 93.64,17 94.408,17 L107.592,17 C108.36,17 109,16.36 109,15.592 L109,8.472 L105.08,8.472 Z" id="Instagram"></path>
                </g>
            </g>
        </g>
    </g>
</svg>