<?xml version="1.0" encoding="UTF-8"?>
<svg width="33px" height="22px" viewBox="0 0 33 22" version="1.1" xmlns="http://www.w3.org/2000/svg" xmlns:xlink="http://www.w3.org/1999/xlink">
    <!-- Generator: Sketch 49.1 (51147) - http://www.bohemiancoding.com/sketch -->
    <title>Shape</title>
    <desc>Created with Sketch.</desc>
    <defs></defs>
    <g id="Page-1" stroke="none" stroke-width="1" fill="none" fill-rule="evenodd">
        <g id="Index" transform="translate(-175.000000, -3720.000000)" fill="#4A4A4A">
            <g id="Footer" transform="translate(0.000000, 3580.000000)">
                <g id="Group" transform="translate(121.000000, 140.207031)">
                    <path d="M63.7613478,11.6695345 C63.747685,12.1060422 63.5290791,12.4061417 63.2148327,12.4061417 C63.0372145,12.4061417 62.9415747,12.2833744 62.9415747,12.1060422 C62.9415747,11.8195842 63.1601806,11.6695345 63.5837304,11.6695345 L63.7613478,11.6695345 L63.7613478,11.6695345 Z M69.1581895,11.1784619 C69.2265044,10.8510807 69.4041219,10.6601085 69.6500542,10.6601085 C70.0872668,10.6601085 70.005289,11.1238986 70.005289,11.1784619 L69.1581895,11.1784619 Z M76.5361511,11.6695345 C76.5224882,12.1060422 76.3038816,12.4061417 75.9896352,12.4061417 C75.8256805,12.4061417 75.7163772,12.2833744 75.7163772,12.1060422 C75.7163772,11.8195842 75.9349839,11.6695345 76.3721965,11.6695345 L76.5361511,11.6695345 L76.5361511,11.6695345 Z M80.8946131,11.3148708 C80.8946131,11.9014291 80.6350179,12.2970152 80.2797831,12.2970152 C80.0201879,12.2970152 79.8972218,12.1060422 79.8972218,11.7240977 C79.8972218,11.1511802 80.1431541,10.7555942 80.4847261,10.7555942 C80.7443213,10.7555942 80.8946131,10.9465672 80.8946131,11.3148708 L80.8946131,11.3148708 Z M61.151736,9.39150534 L60.4002771,11.6149704 L60.3729514,9.39150534 L59.2662568,9.39150534 L58.6650896,12.9654184 L59.389223,12.9654184 L59.8537612,10.2372408 L59.9084132,12.9654184 L60.4412655,12.9654184 L61.4113312,10.2235999 L60.9741186,12.9654184 L61.7392404,12.9654184 L62.3404076,9.39150534 L61.151736,9.39150534 Z M64.6084473,10.8510807 C64.6084473,10.291804 64.2668753,10.0053453 63.5973932,10.0053453 C63.3241352,10.0053453 63.0645409,10.0462685 62.6819796,10.155395 C62.5863391,10.7555942 62.5863391,10.8101582 62.5863391,10.8101582 C62.7093052,10.769235 63.0098888,10.6737493 63.3924501,10.6737493 C63.747685,10.6737493 63.884314,10.7419533 63.884314,10.9465672 C63.884314,10.9874896 63.8706511,11.0284121 63.8569883,11.1238986 C63.7340222,11.1102578 63.6247188,11.1102578 63.5427419,11.1102578 C62.6956424,11.1102578 62.1901158,11.5194847 62.1901158,12.2288103 C62.1901158,12.6926005 62.4770365,13.0199825 62.9005863,13.0199825 C63.2421583,13.0199825 63.5017535,12.9108551 63.6930337,12.6653188 L63.6793709,12.9654184 L64.3215265,12.9654184 C64.3351893,12.7471645 64.4854811,11.8468659 64.553796,11.4239982 C64.5811217,11.1784619 64.6084473,11.0011305 64.6084473,10.8510807 L64.6084473,10.8510807 Z M66.739858,10.0599093 C66.534915,10.0189861 66.2343314,10.0053453 66.056714,10.0053453 C65.1959516,10.0053453 64.9090309,10.4418538 64.9090309,10.9874896 C64.9090309,11.3557933 65.0866483,11.6013296 65.4965352,11.7923018 C65.7971188,11.9423516 65.8517701,11.9832748 65.8517701,12.1196838 C65.8517701,12.2970152 65.7151411,12.3788601 65.4145575,12.3788601 C65.1822888,12.3788601 64.9636821,12.3379376 64.7177506,12.2697336 C64.6221101,12.9108551 64.6221101,12.9381368 64.6221101,12.9381368 C64.7860647,12.9790592 64.9500193,13.0199825 65.4145575,13.0199825 C66.2206686,13.0336233 66.6032291,12.7198829 66.6032291,12.0514789 C66.6032291,11.6558928 66.4392744,11.4103573 66.056714,11.2330259 C65.7288039,11.096617 65.7014783,11.0556937 65.7014783,10.9192856 C65.7014783,10.769235 65.8244445,10.6873901 66.0703768,10.6873901 C66.2206686,10.6873901 66.4256116,10.7010309 66.6305555,10.7283125 L66.739858,10.0599093 Z M67.9421924,10.0599093 L68.0241701,9.62340082 L67.2727111,9.62340082 C66.9721275,11.3421525 66.9311391,11.6149704 66.9311391,11.6149704 C66.876487,11.9150699 66.8218357,12.2560919 66.8218357,12.3788601 C66.8354986,12.8017278 67.0404416,13.0199825 67.4366657,13.0199825 C67.6142832,13.0199825 67.7782378,12.9927 67.9831816,12.9244959 L68.0924842,12.2833744 C68.0378329,12.2970152 67.969518,12.310656 67.8738783,12.310656 C67.6962609,12.310656 67.6142832,12.2424511 67.6142832,12.0924013 C67.6142832,12.0105565 67.7509121,11.3148708 67.8328899,10.769235 L68.2291132,10.769235 L68.3247537,10.0599093 L67.9421924,10.0599093 Z M70.7157596,11.0556937 C70.7157596,10.4145722 70.3058726,10.0053453 69.6773798,10.0053453 C68.912258,10.0053453 68.3520793,10.7283125 68.3520793,11.7240977 C68.3520793,12.5698331 68.7892919,13.0199825 69.6500542,13.0199825 C69.9096485,13.0199825 70.1692437,12.9790592 70.4288388,12.9108551 L70.551805,12.174247 C70.278547,12.310656 70.0326147,12.3652193 69.7593567,12.3652193 C69.322145,12.3652193 69.048887,12.1878879 69.1035383,11.7650202 L70.620119,11.7650202 C70.6884339,11.4785614 70.7157596,11.2603076 70.7157596,11.0556937 L70.7157596,11.0556937 Z M72.6149016,10.0462685 C72.2869916,9.97806364 72.1093742,10.155395 71.8771055,10.5100587 C71.8907683,10.3600089 71.9317567,10.2099591 71.9180939,10.0599093 L71.2212862,10.0599093 C71.1256465,10.960208 70.9753547,11.8741475 70.8250629,12.7744462 L70.7840736,12.9654184 L71.5491954,12.9654184 C71.8224534,11.1921027 71.8907683,10.8510807 72.314318,10.8920031 C72.3962949,10.5236995 72.5192611,10.2099591 72.6149016,10.0462685 L72.6149016,10.0462685 Z M75.1698621,9.48699186 C75.0605588,9.44606942 74.6643346,9.30966045 74.3364254,9.30966045 C73.3117085,9.30966045 72.601238,10.1963183 72.601238,11.4785614 C72.601238,12.4334242 73.1204283,13.0199825 73.9402013,13.0199825 C74.158808,13.0199825 74.3364254,12.9927 74.6233462,12.9108551 L74.7599752,12.1060422 C74.50038,12.2288103 74.295437,12.2833744 74.1041559,12.2833744 C73.6532805,12.2833744 73.3936862,11.9559924 73.3936862,11.4103573 C73.3936862,10.6328268 73.7899095,10.0735502 74.3637511,10.0735502 C74.5823577,10.0735502 74.773638,10.1281134 75.0468959,10.2645224 L75.1698621,9.48699186 Z M77.3832497,10.8510807 C77.3832497,10.291804 77.0416777,10.0053453 76.3858593,10.0053453 C76.0989385,10.0053453 75.8530062,10.0462685 75.4704457,10.155395 C75.3611423,10.7555942 75.3611423,10.8101582 75.3611423,10.8101582 C75.4841085,10.769235 75.7983549,10.6737493 76.1672526,10.6737493 C76.5224882,10.6737493 76.6591172,10.7419533 76.6591172,10.9465672 C76.6591172,10.9874896 76.6591172,11.0284121 76.6317908,11.1238986 C76.5224882,11.1102578 76.4131849,11.1102578 76.3175444,11.1102578 C75.4704457,11.1102578 74.978581,11.5194847 74.978581,12.2288103 C74.978581,12.6926005 75.251839,13.0199825 75.6753887,13.0199825 C76.0306236,13.0199825 76.2902187,12.9108551 76.481499,12.6653188 L76.4678362,12.9654184 L77.0963298,12.9654184 C77.1236554,12.7471645 77.2602844,11.8468659 77.3285985,11.4239982 C77.3695869,11.1784619 77.3832497,11.0011305 77.3832497,10.8510807 L77.3832497,10.8510807 Z M79.3097174,10.0462685 C78.995471,9.97806364 78.8178536,10.155395 78.5719213,10.5100587 C78.5992477,10.3600089 78.6265734,10.2099591 78.6265734,10.0599093 L77.9161028,10.0599093 C77.8204623,10.960208 77.6838333,11.8741475 77.5198787,12.7744462 L77.4788903,12.9654184 L78.2440121,12.9654184 C78.5309328,11.1921027 78.5855841,10.8510807 79.0227967,10.8920031 C79.0911116,10.5236995 79.2140777,10.2099591 79.3097174,10.0462685 L79.3097174,10.0462685 Z M81.2361851,9.39150534 L81.0722305,10.428213 C80.8672874,10.155395 80.6350179,10.0326277 80.3480972,10.0326277 C79.6649531,10.0326277 79.0911116,10.8510807 79.0911116,11.8195842 C79.0911116,12.5425507 79.4600092,13.0199825 80.0201879,13.0199825 C80.3071087,13.0199825 80.5120518,12.9244959 80.7306585,12.7062413 L80.68967,12.9654184 L81.4138025,12.9654184 L82.0013069,9.39150534 L81.2361851,9.39150534 Z M82.7527659,11.164821 C82.7527659,15.2570883 79.4326836,18.585465 75.3201539,18.585465 C73.6396177,18.585465 72.0957113,18.0261884 70.8387257,17.0849673 C71.8907683,16.1164637 72.6832157,14.875143 73.0931026,13.4837726 L72.4099577,13.4837726 C72.0000708,14.7114525 71.2759383,15.8163642 70.3331983,16.6620996 C69.3904591,15.8163642 68.6663257,14.7114525 68.2564388,13.4837726 L67.5732947,13.4837726 C67.9831816,14.875143 68.7756291,16.1164637 69.8276716,17.0849673 C68.5706852,18.0261884 67.0267788,18.585465 65.3462434,18.585465 C61.2337129,18.585465 57.9136307,15.2570883 57.9136307,11.164821 C57.9136307,7.0725546 61.2337129,3.74417705 65.3462434,3.74417705 C67.0267788,3.74417705 68.5706852,4.30345371 69.8276716,5.24467482 C68.7073142,6.26774164 67.8875411,7.60454882 67.491317,9.11868742 L68.1744619,9.11868742 C68.5706852,7.76823942 69.322145,6.58148201 70.3331983,5.66754253 C71.3442524,6.58148201 72.0957113,7.76823942 72.4919355,9.11868742 L73.1750795,9.11868742 C72.7788562,7.60454882 71.9590824,6.26774164 70.8387257,5.24467482 C72.0957113,4.30345371 73.6396177,3.74417705 75.3201539,3.74417705 C79.4326836,3.74417705 82.7527659,7.0725546 82.7527659,11.164821 L82.7527659,11.164821 Z M86.072849,2.43465231 C86.072849,1.47978956 85.2804007,0.688618231 84.3239987,0.688618231 L56.3423986,0.688618231 C55.3859958,0.688618231 54.5935484,1.47978956 54.5935484,2.43465231 L54.5935484,19.8949906 C54.5935484,20.8498525 55.3859958,21.6410239 56.3423986,21.6410239 L84.3239987,21.6410239 C85.2804007,21.6410239 86.072849,20.8498525 86.072849,19.8949906 L86.072849,2.43465231 Z" id="Shape"></path>
                </g>
            </g>
        </g>
    </g>
</svg>