<?xml version="1.0" encoding="UTF-8"?>
<svg width="33px" height="22px" viewBox="0 0 33 22" version="1.1" xmlns="http://www.w3.org/2000/svg" xmlns:xlink="http://www.w3.org/1999/xlink">
    <!-- Generator: Sketch 49.1 (51147) - http://www.bohemiancoding.com/sketch -->
    <title>Shape</title>
    <desc>Created with Sketch.</desc>
    <defs></defs>
    <g id="Page-1" stroke="none" stroke-width="1" fill="none" fill-rule="evenodd">
        <g id="Index" transform="translate(-121.000000, -3720.000000)" fill="#4A4A4A">
            <g id="Footer" transform="translate(0.000000, 3580.000000)">
                <g id="Group" transform="translate(121.000000, 140.207031)">
                    <path d="M10.9078858,10.9715879 C10.9078858,10.4395929 10.5253253,10.1258525 10.0197978,10.1258525 C9.35031657,10.1258525 8.83112629,10.6578475 8.83112629,11.3262507 C8.83112629,11.8582458 9.20002478,12.1447045 9.70555142,12.1447045 C10.3750335,12.1447045 10.9078858,11.6399919 10.9078858,10.9715879 L10.9078858,10.9715879 Z M21.6332552,8.9390951 C21.6332552,8.35253762 21.1140649,8.32525518 20.6495267,8.32525518 L20.4035952,8.32525518 C20.3079547,8.32525518 20.2396398,8.37981925 20.225977,8.47530495 L19.9937083,9.93488029 L20.4309208,9.92123947 C21.1413914,9.92123947 21.6332552,9.75754888 21.6332552,8.9390951 L21.6332552,8.9390951 Z M26.4289298,10.9715879 C26.4289298,10.4395929 26.0463685,10.1258525 25.5408418,10.1258525 C24.8713598,10.1258525 24.3521703,10.6578475 24.3521703,11.3262507 C24.3521703,11.8582458 24.7347316,12.1447045 25.2402582,12.1447045 C25.8960767,12.1447045 26.4289298,11.6399919 26.4289298,10.9715879 L26.4289298,10.9715879 Z M7.73809529,8.63899555 C7.73809529,10.2076982 6.78169245,11.1352785 5.22412325,11.1352785 C4.96452811,11.1352785 4.29504685,10.9988695 4.24039477,11.3944556 L3.99446327,12.8949534 C3.98080045,13.0450032 3.84417147,13.1541305 3.69387968,13.1541305 L2.65549994,13.1541305 C2.5461966,13.1541305 2.4642197,13.0450032 2.47788252,12.9358758 L3.36597046,7.37039325 C3.37963328,7.22034347 3.51626225,7.11121614 3.65289123,7.11121614 L5.83895324,7.11121614 C6.85000735,7.11121614 7.73809529,7.4931614 7.73809529,8.63899555 L7.73809529,8.63899555 Z M11.9599283,12.8949534 C11.9326027,13.0450032 11.8096365,13.1541305 11.6593447,13.1541305 L10.7166055,13.1541305 C10.5936394,13.1541305 10.5389881,13.058644 10.5389881,12.9358758 C10.5389881,12.854031 10.5663137,12.7312628 10.5936394,12.6494171 C10.2520673,13.0313624 9.63723734,13.2496162 9.1453727,13.2496162 C8.07966733,13.2496162 7.41018607,12.5539314 7.41018607,11.4899421 C7.41018607,10.1940574 8.43490299,9.02094081 9.7738655,9.02094081 C10.2930558,9.02094081 10.757594,9.10278651 11.0718404,9.56657666 C11.0855032,9.41652688 11.099166,9.11642732 11.3041099,9.11642732 L12.3424896,9.11642732 C12.4517922,9.11642732 12.5337699,9.22555384 12.5201071,9.33468118 L11.9599283,12.8949534 Z M18.0672406,9.30739955 C18.0672406,9.34832199 18.0672406,9.37560362 18.039915,9.40288606 L14.5558773,14.4227328 C14.501226,14.5045785 14.4055855,14.5591418 14.3099458,14.5591418 L13.2579032,14.5591418 C13.1622627,14.5591418 13.0802858,14.4772969 13.0802858,14.3818104 C13.0802858,14.2181198 14.0503506,12.9495167 14.2006424,12.7449036 C14.1050019,12.4584449 13.0392965,9.37560362 13.0392965,9.30739955 C13.0392965,9.21191303 13.1212742,9.11642732 13.2169148,9.11642732 L14.2416309,9.11642732 C14.3782598,9.11642732 14.501226,9.21191303 14.5422144,9.33468118 L15.1433816,11.3808148 L16.5916483,9.25283629 C16.6462996,9.17099058 16.7419401,9.11642732 16.8375806,9.11642732 L17.8896232,9.11642732 C17.9852629,9.11642732 18.0672406,9.21191303 18.0672406,9.30739955 L18.0672406,9.30739955 Z M23.2591393,8.63899555 C23.2591393,10.2076982 22.3027364,11.1352785 20.7451672,11.1352785 C20.4855721,11.1352785 19.8160909,10.9988695 19.7614388,11.3944556 L19.5155073,12.9767983 C19.4881808,13.0722848 19.4062039,13.1541305 19.2969006,13.1541305 L18.1765439,13.1541305 C18.0672406,13.1541305 17.9852629,13.0450032 17.9989265,12.9358758 L18.8870136,7.37039325 C18.9006773,7.22034347 19.0373054,7.11121614 19.1875972,7.11121614 L21.3599972,7.11121614 C22.3710513,7.11121614 23.2591393,7.4931614 23.2591393,8.63899555 L23.2591393,8.63899555 Z M27.4809723,12.8949534 C27.4536467,13.0450032 27.3306805,13.1541305 27.1803887,13.1541305 L26.2376495,13.1541305 C26.1146834,13.1541305 26.0600313,13.058644 26.0600313,12.9358758 C26.0600313,12.854031 26.1010206,12.7312628 26.1146834,12.6494171 C25.7867741,13.0313624 25.1719433,13.2496162 24.6664167,13.2496162 C23.6007113,13.2496162 22.9312301,12.5539314 22.9312301,11.4899421 C22.9312301,10.1940574 23.9559462,9.02094081 25.2949095,9.02094081 C25.8277626,9.02094081 26.2923008,9.10278651 26.5928844,9.56657666 C26.6065472,9.41652688 26.62021,9.11642732 26.8251539,9.11642732 L27.8635328,9.11642732 C27.9728362,9.11642732 28.0548139,9.22555384 28.0411511,9.33468118 L27.4809723,12.8949534 Z M30.4594826,7.31582999 L29.5713946,12.8949534 C29.5577318,13.0450032 29.4211028,13.1541305 29.2844738,13.1541305 L28.3827231,13.1541305 C28.2734197,13.1541305 28.1914428,13.058644 28.1914428,12.9631575 L28.2051057,12.9358758 L29.0931936,7.26126592 C29.1068564,7.17942103 29.1888333,7.11121614 29.270811,7.11121614 L30.2818651,7.11121614 C30.3775049,7.11121614 30.4594826,7.19306184 30.4594826,7.30218836 L30.4594826,7.31582999 Z M6.08488556,9.14370895 C6.20785172,8.40710088 5.74331353,8.32525518 5.12848272,8.32525518 L4.8688884,8.32525518 C4.78691068,8.32525518 4.70493379,8.37981925 4.69127097,8.47530495 L4.45900146,9.93488029 L4.90987685,9.92123947 C5.51104402,9.92123947 5.97558222,9.83939377 6.08488556,9.14370895 L6.08488556,9.14370895 Z M32.2083328,2.10501021 C32.2083328,1.15014747 31.4158846,0.358976139 30.4594826,0.358976139 L2.47788252,0.358976139 C1.52147967,0.358976139 0.729032258,1.15014747 0.729032258,2.10501021 L0.729032258,19.5653485 C0.729032258,20.5202104 1.52147967,21.3113818 2.47788252,21.3113818 L30.4594826,21.3113818 C31.4158846,21.3113818 32.2083328,20.5202104 32.2083328,19.5653485 L32.2083328,2.10501021 Z" id="Shape"></path>
                </g>
            </g>
        </g>
    </g>
</svg>