<?xml version="1.0" encoding="UTF-8"?>
<svg width="33px" height="22px" viewBox="0 0 33 22" version="1.1" xmlns="http://www.w3.org/2000/svg" xmlns:xlink="http://www.w3.org/1999/xlink">
    <!-- Generator: Sketch 49.1 (51147) - http://www.bohemiancoding.com/sketch -->
    <title>Shape</title>
    <desc>Created with Sketch.</desc>
    <defs></defs>
    <g id="Page-1" stroke="none" stroke-width="1" fill="none" fill-rule="evenodd">
        <g id="Index" transform="translate(-234.000000, -3720.000000)" fill="#4A4A4A">
            <g id="Footer" transform="translate(0.000000, 3580.000000)">
                <g id="Group" transform="translate(121.000000, 140.207031)">
                    <path d="M140.777102,12.1174229 C140.777102,12.1174229 140.681462,11.6809144 140.257912,9.59385829 L140.093958,8.8436094 C139.984654,9.17099058 139.779711,9.68934399 139.793374,9.67570318 C139.082903,11.6127095 138.891623,12.1174229 138.891623,12.1174229 L140.777102,12.1174229 L140.777102,12.1174229 Z M121.047888,11.230765 C120.118811,8.65263718 118.055715,7.28854755 115.541743,6.64742599 L115.569069,6.47009458 L119.230723,6.47009458 C119.722588,6.47009458 120.146137,6.64742599 120.25544,7.20670266 L121.047888,11.230765 Z M123.493545,6.47009458 L125.898214,6.47009458 L122.332199,15.2139041 L119.941194,15.2139041 L118.096704,8.2570511 C119.408341,8.78904532 120.569686,9.96216192 121.047888,11.230765 L121.280157,12.4448041 L123.493545,6.47009458 Z M125.392687,15.2275458 L126.813628,6.47009458 L129.081667,6.47009458 L127.660727,15.2275458 L125.392687,15.2275458 Z M135.885787,6.68834844 L135.571541,8.58443229 L135.366597,8.47530495 C134.956711,8.28433273 134.410195,8.13428295 133.672399,8.14792377 C132.784311,8.14792377 132.374424,8.52986903 132.374424,8.89817266 C132.374424,9.30739955 132.852625,9.59385829 133.645073,9.98944355 C134.943047,10.6169251 135.557878,11.367174 135.557878,12.3629584 C135.530552,14.1771973 133.986645,15.3639539 131.609302,15.3503131 C130.584585,15.3503131 129.61452,15.1320592 129.081667,14.886523 L129.395914,12.922235 L129.696497,13.0722848 C130.420631,13.4133068 130.912495,13.5224341 131.827909,13.5224341 C132.470064,13.5224341 133.180535,13.263257 133.180535,12.6766987 C133.180535,12.2947543 132.893614,12.0082955 132.005526,11.5854278 C131.144764,11.1625601 130.010744,10.4668753 130.024407,9.21191303 C130.03807,7.50680221 131.609302,6.32004481 133.850016,6.32004481 C134.724441,6.32004481 135.434912,6.51101703 135.885787,6.68834844 L135.885787,6.68834844 Z M141.692516,6.47009458 L143.523343,15.2275458 L141.419258,15.2275458 C141.214314,14.2181198 141.146,13.9180202 141.146,13.9180202 L138.249468,13.9180202 C138.249468,13.9180202 138.153827,14.1499149 137.771266,15.2275458 L135.393923,15.2275458 L138.754994,7.20670266 C138.987264,6.63378518 139.39715,6.47009458 139.943666,6.47009458 L141.692516,6.47009458 Z M145.272193,2.10501021 C145.272193,1.15014747 144.479745,0.358976139 143.523343,0.358976139 L115.541743,0.358976139 C114.58534,0.358976139 113.792893,1.15014747 113.792893,2.10501021 L113.792893,19.5653485 C113.792893,20.5202104 114.58534,21.3113818 115.541743,21.3113818 L143.523343,21.3113818 C144.479745,21.3113818 145.272193,20.5202104 145.272193,19.5653485 L145.272193,2.10501021 Z" id="Shape"></path>
                </g>
            </g>
        </g>
    </g>
</svg>